<?xml version="1.0" encoding="UTF-8"?><svg id="_レイヤー_2" xmlns="http://www.w3.org/2000/svg" viewBox="0 0 51.82 51.83"><defs><style>.cls-1{fill:#003559;}</style></defs><g id="icon"><path class="cls-1" d="M7.34,43.33c.64,0,1.15.52,1.15,1.15s-.52,1.15-1.15,1.15-1.15-.52-1.15-1.15.52-1.15,1.15-1.15Z"/><path class="cls-1" d="M7.34,37.14c.64,0,1.15.52,1.15,1.15s-.52,1.15-1.15,1.15-1.15-.52-1.15-1.15.52-1.15,1.15-1.15Z"/><path class="cls-1" d="M7.34,30.95c.64,0,1.15.52,1.15,1.15s-.52,1.15-1.15,1.15-1.15-.52-1.15-1.15.52-1.15,1.15-1.15Z"/><path class="cls-1" d="M7.34,24.76c.64,0,1.15.52,1.15,1.15s-.52,1.15-1.15,1.15-1.15-.52-1.15-1.15.52-1.15,1.15-1.15Z"/><path class="cls-1" d="M7.34,18.57c.64,0,1.15.52,1.15,1.15s-.52,1.15-1.15,1.15-1.15-.52-1.15-1.15.52-1.15,1.15-1.15Z"/><path class="cls-1" d="M7.34,12.38c.64,0,1.15.52,1.15,1.15s-.52,1.15-1.15,1.15-1.15-.52-1.15-1.15.52-1.15,1.15-1.15Z"/><path class="cls-1" d="M7.34,6.19c.64,0,1.15.52,1.15,1.15s-.52,1.15-1.15,1.15-1.15-.52-1.15-1.15.52-1.15,1.15-1.15Z"/><path class="cls-1" d="M7.34,0c.64,0,1.15.52,1.15,1.15s-.52,1.15-1.15,1.15-1.15-.52-1.15-1.15.52-1.15,1.15-1.15Z"/><path class="cls-1" d="M1.15,49.52c.64,0,1.15.52,1.15,1.15s-.52,1.15-1.15,1.15-1.15-.52-1.15-1.15.52-1.15,1.15-1.15Z"/><path class="cls-1" d="M1.15,43.33c.64,0,1.15.52,1.15,1.15s-.52,1.15-1.15,1.15-1.15-.52-1.15-1.15.52-1.15,1.15-1.15Z"/><circle class="cls-1" cx="1.15" cy="38.29" r="1.15"/><path class="cls-1" d="M1.15,30.95c.64,0,1.15.52,1.15,1.15s-.52,1.15-1.15,1.15-1.15-.52-1.15-1.15.52-1.15,1.15-1.15Z"/><path class="cls-1" d="M1.15,24.76c.64,0,1.15.52,1.15,1.15s-.52,1.15-1.15,1.15-1.15-.52-1.15-1.15.52-1.15,1.15-1.15Z"/><circle class="cls-1" cx="1.15" cy="19.72" r="1.15"/><path class="cls-1" d="M1.15,12.38c.64,0,1.15.52,1.15,1.15s-.52,1.15-1.15,1.15-1.15-.52-1.15-1.15.52-1.15,1.15-1.15Z"/><path class="cls-1" d="M1.15,6.19c.64,0,1.15.52,1.15,1.15s-.52,1.15-1.15,1.15-1.15-.52-1.15-1.15.52-1.15,1.15-1.15Z"/><circle class="cls-1" cx="1.15" cy="1.15" r="1.15"/><path class="cls-1" d="M13.53,37.14c.64,0,1.15.52,1.15,1.15s-.52,1.15-1.15,1.15-1.15-.52-1.15-1.15.52-1.15,1.15-1.15Z"/><path class="cls-1" d="M13.53,30.95c.64,0,1.15.52,1.15,1.15s-.52,1.15-1.15,1.15-1.15-.52-1.15-1.15.52-1.15,1.15-1.15Z"/><path class="cls-1" d="M13.53,24.76c.64,0,1.15.52,1.15,1.15s-.52,1.15-1.15,1.15-1.15-.52-1.15-1.15.52-1.15,1.15-1.15Z"/><path class="cls-1" d="M13.53,18.57c.64,0,1.15.52,1.15,1.15s-.52,1.15-1.15,1.15-1.15-.52-1.15-1.15.52-1.15,1.15-1.15Z"/><path class="cls-1" d="M13.53,12.38c.64,0,1.15.52,1.15,1.15s-.52,1.15-1.15,1.15-1.15-.52-1.15-1.15.52-1.15,1.15-1.15Z"/><path class="cls-1" d="M13.53,6.19c.64,0,1.15.52,1.15,1.15s-.52,1.15-1.15,1.15-1.15-.52-1.15-1.15.52-1.15,1.15-1.15Z"/><path class="cls-1" d="M13.53,0c.64,0,1.15.52,1.15,1.15s-.52,1.15-1.15,1.15-1.15-.52-1.15-1.15.52-1.15,1.15-1.15Z"/><path class="cls-1" d="M19.72,30.95c.64,0,1.15.52,1.15,1.15s-.52,1.15-1.15,1.15-1.15-.52-1.15-1.15.52-1.15,1.15-1.15Z"/><path class="cls-1" d="M19.72,24.76c.64,0,1.15.52,1.15,1.15s-.52,1.15-1.15,1.15-1.15-.52-1.15-1.15.52-1.15,1.15-1.15Z"/><circle class="cls-1" cx="19.72" cy="19.72" r="1.15"/><path class="cls-1" d="M19.72,12.38c.64,0,1.15.52,1.15,1.15s-.52,1.15-1.15,1.15-1.15-.52-1.15-1.15.52-1.15,1.15-1.15Z"/><path class="cls-1" d="M19.72,6.19c.64,0,1.15.52,1.15,1.15s-.52,1.15-1.15,1.15-1.15-.52-1.15-1.15.52-1.15,1.15-1.15Z"/><circle class="cls-1" cx="19.72" cy="1.15" r="1.15"/><path class="cls-1" d="M25.91,24.76c.64,0,1.15.52,1.15,1.15s-.52,1.15-1.15,1.15-1.15-.52-1.15-1.15.52-1.15,1.15-1.15Z"/><path class="cls-1" d="M25.91,18.57c.64,0,1.15.52,1.15,1.15s-.52,1.15-1.15,1.15-1.15-.52-1.15-1.15.52-1.15,1.15-1.15Z"/><path class="cls-1" d="M25.91,12.38c.64,0,1.15.52,1.15,1.15s-.52,1.15-1.15,1.15-1.15-.52-1.15-1.15.52-1.15,1.15-1.15Z"/><path class="cls-1" d="M25.91,6.19c.64,0,1.15.52,1.15,1.15s-.52,1.15-1.15,1.15-1.15-.52-1.15-1.15.52-1.15,1.15-1.15Z"/><path class="cls-1" d="M25.91,0c.64,0,1.15.52,1.15,1.15s-.52,1.15-1.15,1.15-1.15-.52-1.15-1.15.52-1.15,1.15-1.15Z"/><circle class="cls-1" cx="32.1" cy="19.72" r="1.15"/><path class="cls-1" d="M32.1,12.38c.64,0,1.15.52,1.15,1.15s-.52,1.15-1.15,1.15-1.15-.52-1.15-1.15.52-1.15,1.15-1.15Z"/><path class="cls-1" d="M32.1,6.19c.64,0,1.15.52,1.15,1.15s-.52,1.15-1.15,1.15-1.15-.52-1.15-1.15.52-1.15,1.15-1.15Z"/><circle class="cls-1" cx="32.1" cy="1.15" r="1.15"/><path class="cls-1" d="M38.29,12.38c.64,0,1.15.52,1.15,1.15s-.52,1.15-1.15,1.15-1.15-.52-1.15-1.15.52-1.15,1.15-1.15Z"/><path class="cls-1" d="M38.29,6.19c.64,0,1.15.52,1.15,1.15s-.52,1.15-1.15,1.15-1.15-.52-1.15-1.15.52-1.15,1.15-1.15Z"/><path class="cls-1" d="M38.29,0c.64,0,1.15.52,1.15,1.15s-.52,1.15-1.15,1.15-1.15-.52-1.15-1.15.52-1.15,1.15-1.15Z"/><path class="cls-1" d="M44.48,6.19c.64,0,1.15.52,1.15,1.15s-.52,1.15-1.15,1.15-1.15-.52-1.15-1.15.52-1.15,1.15-1.15Z"/><path class="cls-1" d="M44.48,0c.64,0,1.15.52,1.15,1.15s-.52,1.15-1.15,1.15-1.15-.52-1.15-1.15.52-1.15,1.15-1.15Z"/><circle class="cls-1" cx="50.67" cy="1.15" r="1.15"/></g></svg>