<?xml version="1.0" encoding="UTF-8"?><svg id="_レイヤー_2" xmlns="http://www.w3.org/2000/svg" viewBox="0 0 40.42 35.6"><defs><style>.cls-1{fill:#8fe2ff;}.cls-2{fill:#5f5d89;}</style></defs><g id="icon"><path class="cls-1" d="M35.8.9H4.42C2.43.9.8,2.89.8,5.33v2.21h38.61v-2.21c0-2.44-1.62-4.42-3.62-4.42Z"/><path class="cls-2" d="M35.9,0H4.52C2.03,0,0,2.03,0,4.52v26.55c0,2.49,2.03,4.52,4.52,4.52h31.37c2.5,0,4.52-2.03,4.52-4.52V4.52c0-2.49-2.03-4.52-4.52-4.52ZM38.61,31.07c0,1.5-1.22,2.71-2.71,2.71H4.52c-1.5,0-2.71-1.22-2.71-2.71V9.05h36.8v22.02ZM38.61,7.24H1.81v-2.71c0-1.5,1.22-2.71,2.71-2.71h31.37c1.5,0,2.71,1.22,2.71,2.71v2.71ZM17.39,25.85c.13.06.27.1.4.1.33,0,.65-.18.81-.5l4.83-9.65c.22-.45.04-.99-.4-1.21-.45-.22-.99-.04-1.21.41l-4.83,9.65c-.22.45-.04.99.4,1.21ZM26.81,25.68c.18.18.41.27.64.27s.46-.09.64-.27l4.83-4.83c.35-.35.35-.93,0-1.28l-4.83-4.83c-.35-.35-.93-.35-1.28,0-.35.35-.35.93,0,1.28l4.19,4.19-4.19,4.19c-.35.35-.35.93,0,1.28ZM12.33,25.68c.18.18.41.27.64.27s.46-.09.64-.27c.35-.35.35-.93,0-1.28l-4.19-4.19,4.19-4.19c.35-.35.35-.93,0-1.28-.35-.35-.93-.35-1.28,0l-4.83,4.83c-.35.35-.35.93,0,1.28l4.83,4.83Z"/></g></svg>