<?xml version="1.0" encoding="UTF-8"?><svg id="_レイヤー_2" xmlns="http://www.w3.org/2000/svg" viewBox="0 0 11.32 61.97"><defs><style>.cls-1{fill:#003559;}</style></defs><g id="icon"><polygon class="cls-1" points="11.32 56.58 5.66 61.97 0 56.58 .66 55.89 5.66 60.65 10.66 55.89 11.32 56.58"/><polygon class="cls-1" points="11.32 48.59 5.66 53.98 0 48.59 .66 47.9 5.66 52.67 10.66 47.9 11.32 48.59"/><polygon class="cls-1" points="11.32 40.61 5.66 46 0 40.61 .66 39.92 5.66 44.68 10.66 39.92 11.32 40.61"/><polygon class="cls-1" points="11.32 32.63 5.66 38.02 0 32.63 .66 31.94 5.66 36.7 10.66 31.94 11.32 32.63"/><polygon class="cls-1" points="11.32 24.64 5.66 30.03 0 24.64 .66 23.95 5.66 28.72 10.66 23.95 11.32 24.64"/><polygon class="cls-1" points="11.32 16.66 5.66 22.05 0 16.66 .66 15.97 5.66 20.73 10.66 15.97 11.32 16.66"/><polygon class="cls-1" points="11.32 8.67 5.66 14.06 0 8.67 .66 7.98 5.66 12.75 10.66 7.98 11.32 8.67"/><polygon class="cls-1" points="11.32 .69 5.66 6.08 0 .69 .66 0 5.66 4.76 10.66 0 11.32 .69"/></g></svg>