<?xml version="1.0" encoding="UTF-8"?><svg id="_レイヤー_2" xmlns="http://www.w3.org/2000/svg" viewBox="0 0 53.25 53.25"><defs><style>.cls-1{fill:#003559;}</style></defs><g id="icon"><path class="cls-1" d="M26.62,7.87c-.68,0-1.24-.56-1.24-1.24V1.24c0-.68.56-1.24,1.24-1.24s1.24.56,1.24,1.24v5.39c0,.68-.56,1.24-1.24,1.24Z"/><path class="cls-1" d="M18.97,9.39c-.5,0-.95-.3-1.15-.77l-2.06-4.98c-.13-.31-.13-.64,0-.95.13-.31.36-.54.67-.67.15-.06.31-.09.47-.09.5,0,.95.3,1.14.77l2.06,4.98c.26.63-.04,1.36-.67,1.62-.15.06-.31.09-.47.09Z"/><path class="cls-1" d="M12.49,13.73c-.33,0-.64-.13-.88-.36l-3.81-3.81c-.48-.48-.48-1.27,0-1.75.23-.23.54-.36.88-.36s.64.13.88.36l3.81,3.81c.23.23.36.55.36.88s-.13.64-.36.88c-.23.23-.54.36-.88.36Z"/><path class="cls-1" d="M8.15,20.21c-.16,0-.32-.03-.47-.09l-4.98-2.06c-.63-.26-.93-.99-.67-1.62.19-.46.64-.77,1.15-.77.16,0,.32.03.47.09l4.98,2.06c.31.13.54.36.67.67.13.31.13.64,0,.95-.19.46-.64.77-1.15.77Z"/><path class="cls-1" d="M1.24,27.86c-.68,0-1.24-.56-1.24-1.24s.56-1.24,1.24-1.24h5.39c.68,0,1.24.56,1.24,1.24s-.56,1.24-1.24,1.24H1.24Z"/><path class="cls-1" d="M3.17,37.58c-.5,0-.95-.3-1.15-.77-.26-.63.04-1.36.67-1.62l4.98-2.06c.15-.06.31-.09.47-.09.5,0,.95.3,1.15.77.13.31.13.64,0,.95-.13.31-.36.54-.67.67l-4.98,2.06c-.15.06-.31.09-.47.09Z"/><path class="cls-1" d="M8.67,45.81c-.33,0-.64-.13-.88-.36-.48-.48-.48-1.27,0-1.75l3.81-3.81c.23-.23.54-.36.88-.36s.64.13.88.36c.23.23.36.54.36.88s-.13.64-.36.88l-3.81,3.81c-.23.23-.55.36-.88.36Z"/><path class="cls-1" d="M16.91,51.32c-.16,0-.32-.03-.47-.09-.31-.13-.54-.36-.67-.67-.13-.31-.13-.64,0-.95l2.06-4.98c.19-.46.64-.77,1.15-.77.16,0,.32.03.47.09.31.13.54.36.67.67.13.31.13.64,0,.95l-2.06,4.98c-.19.46-.64.77-1.15.77Z"/><path class="cls-1" d="M26.62,53.25c-.68,0-1.24-.56-1.24-1.24v-5.39c0-.68.56-1.24,1.24-1.24s1.24.56,1.24,1.24v5.39c0,.68-.56,1.24-1.24,1.24Z"/><path class="cls-1" d="M36.34,51.32c-.5,0-.95-.3-1.15-.77l-2.06-4.98c-.13-.31-.13-.64,0-.95.13-.31.36-.54.67-.67.15-.06.31-.09.47-.09.5,0,.95.3,1.15.77l2.06,4.98c.13.31.13.64,0,.95-.13.31-.36.54-.67.67-.15.06-.31.09-.47.09Z"/><path class="cls-1" d="M44.57,45.81c-.33,0-.64-.13-.88-.36l-3.81-3.81c-.48-.48-.48-1.27,0-1.75.23-.23.55-.36.88-.36s.64.13.88.36l3.81,3.81c.23.23.36.55.36.88s-.13.64-.36.88c-.23.23-.55.36-.88.36Z"/><path class="cls-1" d="M50.08,37.58c-.16,0-.32-.03-.47-.09l-4.98-2.06c-.31-.13-.54-.36-.67-.67-.13-.31-.13-.64,0-.95.19-.46.64-.77,1.15-.77.16,0,.32.03.47.09l4.98,2.06c.63.26.93.99.67,1.62-.19.46-.64.77-1.15.77Z"/><path class="cls-1" d="M46.62,27.86c-.68,0-1.24-.56-1.24-1.24s.56-1.24,1.24-1.24h5.39c.68,0,1.24.56,1.24,1.24s-.56,1.24-1.24,1.24h-5.39Z"/><path class="cls-1" d="M45.1,20.21c-.5,0-.95-.3-1.15-.77-.13-.31-.13-.64,0-.95.13-.31.36-.54.67-.67l4.98-2.06c.15-.06.31-.09.47-.09.5,0,.95.3,1.15.77.26.63-.04,1.36-.67,1.62l-4.98,2.06c-.15.06-.31.09-.47.09Z"/><path class="cls-1" d="M40.76,13.73c-.33,0-.64-.13-.88-.36-.48-.48-.48-1.27,0-1.75l3.81-3.81c.23-.23.54-.36.88-.36s.64.13.88.36c.23.23.36.54.36.88s-.13.64-.36.88l-3.81,3.81c-.23.23-.54.36-.88.36Z"/><path class="cls-1" d="M34.28,9.39c-.16,0-.32-.03-.47-.09-.31-.13-.54-.36-.67-.67-.13-.31-.13-.64,0-.95l2.06-4.98c.19-.46.64-.77,1.14-.77.16,0,.32.03.47.09.31.13.54.36.67.67.13.31.13.64,0,.95l-2.06,4.98c-.19.46-.64.77-1.15.77Z"/></g></svg>