<?xml version="1.0" encoding="UTF-8"?><svg id="_レイヤー_2" xmlns="http://www.w3.org/2000/svg" viewBox="0 0 62.57 52.02"><defs><style>.cls-1{fill:#8fe2ff;}.cls-2{fill:#fff;}.cls-3{fill:#5f5d89;}</style></defs><g id="icon"><path class="cls-1" d="M.95,28.84v3.54c0,1.55,1.25,2.8,2.8,2.8h45.1c1.55,0,2.8-1.25,2.8-2.8v-3.54H.95Z"/><path class="cls-3" d="M48.86,0H3.75C1.68,0,0,1.68,0,3.75v28.62c0,2.07,1.68,3.75,3.75,3.75h17.79v3.65c0,.51-.18.87-.38,1.01l-2.81,2.31h-3.46c-.52,0-.95.43-.95.95s.43.95.95.95h22.82c.52,0,.95-.43.95-.95s-.43-.95-.95-.95h-3.46l-2.87-2.36c-.14-.1-.33-.46-.32-.96v-3.65h17.8c2.07,0,3.75-1.68,3.75-3.75V3.75c0-2.07-1.68-3.75-3.75-3.75ZM31.26,43.1h-9.9l.97-.8c.71-.5,1.14-1.47,1.13-2.53v-3.64s5.7,0,5.7,0v3.65c0,1.06.42,2.03,1.07,2.48l1.03.84ZM50.71,32.38c0,1.02-.83,1.85-1.85,1.85H3.75c-1.02,0-1.85-.83-1.85-1.85v-2.59h48.81v2.59ZM50.71,27.89H1.9V3.75c0-1.02.83-1.85,1.85-1.85h45.11c1.02,0,1.85.83,1.85,1.85v24.14Z"/><path class="cls-1" d="M43.29,49.69c0,.94.76,1.7,1.7,1.7h15.26c.94,0,1.7-.76,1.7-1.7v-5.09h-18.65v5.09ZM60.24,20.87h-15.26c-.94,0-1.7.76-1.7,1.7v2.54h18.65v-2.54c0-.94-.76-1.7-1.7-1.7Z"/><path class="cls-3" d="M51.76,48.63h2.54c.35,0,.64-.28.64-.64s-.28-.64-.64-.64h-2.54c-.35,0-.64.28-.64.64s.28.64.64.64ZM60.24,20.24h-15.26c-1.29,0-2.33,1.05-2.33,2.33v27.12c0,1.29,1.05,2.33,2.33,2.33h15.26c1.29,0,2.33-1.05,2.33-2.33v-27.12c0-1.29-1.05-2.33-2.33-2.33ZM61.3,49.69c0,.58-.48,1.06-1.06,1.06h-15.26c-.58,0-1.06-.48-1.06-1.06v-4.45h17.38v4.45ZM61.3,43.97h-17.38v-18.22h17.38v18.22ZM61.3,24.48h-17.38v-1.91c0-.58.48-1.06,1.06-1.06h15.26c.58,0,1.06.48,1.06,1.06v1.91Z"/><rect class="cls-2" x="43.92" y="25.75" width="17.38" height="18.22"/></g></svg>