<?xml version="1.0" encoding="UTF-8"?><svg id="_レイヤー_2" xmlns="http://www.w3.org/2000/svg" viewBox="0 0 60.56 60.11"><defs><style>.cls-1{fill:#003559;}</style></defs><g id="icon"><path class="cls-1" d="M2.1,60.11c-.13,0-.27-.05-.37-.15l-1.58-1.58c-.2-.2-.2-.53,0-.74.2-.2.53-.2.74,0l1.58,1.58c.2.2.2.53,0,.74-.1.1-.23.15-.37.15Z"/><path class="cls-1" d="M6.54,60.11c-.13,0-.27-.05-.37-.15L.15,53.93c-.2-.2-.2-.53,0-.74.2-.2.53-.2.74,0l6.02,6.02c.2.2.2.53,0,.74-.1.1-.23.15-.37.15Z"/><path class="cls-1" d="M10.99,60.11c-.13,0-.27-.05-.37-.15L.15,49.49c-.2-.2-.2-.53,0-.74.2-.2.53-.2.74,0l10.47,10.47c.2.2.2.53,0,.74-.1.1-.23.15-.37.15Z"/><path class="cls-1" d="M15.43,60.11c-.13,0-.27-.05-.37-.15L.15,45.04c-.2-.2-.2-.53,0-.74.2-.2.53-.2.74,0l14.91,14.91c.2.2.2.53,0,.74-.1.1-.23.15-.37.15Z"/><path class="cls-1" d="M19.88,60.11c-.13,0-.27-.05-.37-.15L.15,40.6c-.2-.2-.2-.53,0-.74.2-.2.53-.2.74,0l19.36,19.36c.2.2.2.53,0,.74-.1.1-.23.15-.37.15Z"/><path class="cls-1" d="M28.77,60.11c-.13,0-.27-.05-.37-.15L.15,31.7c-.2-.2-.2-.53,0-.74.2-.2.53-.2.74,0l28.25,28.25c.2.2.2.53,0,.74-.1.1-.23.15-.37.15Z"/><path class="cls-1" d="M28.77,51.22c-.13,0-.27-.05-.37-.15L9.04,31.7c-.2-.2-.2-.53,0-.74.2-.2.53-.2.74,0l19.36,19.36c.2.2.2.53,0,.74-.1.1-.23.15-.37.15Z"/><path class="cls-1" d="M24.33,60.11c-.13,0-.27-.05-.37-.15L.15,36.15c-.2-.2-.2-.53,0-.74.2-.2.53-.2.74,0l23.81,23.81c.2.2.2.53,0,.74-.1.1-.23.15-.37.15Z"/><path class="cls-1" d="M28.77,55.66c-.13,0-.27-.05-.37-.15L4.6,31.7c-.2-.2-.2-.53,0-.74.2-.2.53-.2.74,0l23.81,23.81c.2.2.2.53,0,.74-.1.1-.23.15-.37.15Z"/><path class="cls-1" d="M28.77,46.77c-.13,0-.27-.05-.37-.15l-14.91-14.91c-.2-.2-.2-.53,0-.74.2-.2.53-.2.74,0l14.91,14.91c.2.2.2.53,0,.74-.1.1-.23.15-.37.15Z"/><path class="cls-1" d="M28.77,42.32c-.13,0-.27-.05-.37-.15l-10.47-10.47c-.2-.2-.2-.53,0-.74.2-.2.53-.2.74,0l10.47,10.47c.2.2.2.53,0,.74-.1.1-.23.15-.37.15Z"/><path class="cls-1" d="M28.77,37.88c-.13,0-.27-.05-.37-.15l-6.02-6.02c-.2-.2-.2-.53,0-.74.2-.2.53-.2.74,0l6.02,6.02c.2.2.2.53,0,.74-.1.1-.23.15-.37.15Z"/><path class="cls-1" d="M28.77,33.43c-.13,0-.27-.05-.37-.15l-1.58-1.58c-.2-.2-.2-.53,0-.74.2-.2.53-.2.74,0l1.58,1.58c.2.2.2.53,0,.74-.1.1-.23.15-.37.15Z"/><polygon class="cls-1" points="57.92 0 59.24 1.98 60.56 0 57.92 0"/><polygon class="cls-1" points="51.64 0 52.97 1.98 54.29 0 51.64 0"/><polygon class="cls-1" points="45.37 0 46.69 1.98 48.01 0 45.37 0"/><polygon class="cls-1" points="39.09 0 40.41 1.98 41.73 0 39.09 0"/><polygon class="cls-1" points="32.81 0 34.13 1.98 35.46 0 32.81 0"/><polygon class="cls-1" points="26.53 0 27.86 1.98 29.18 0 26.53 0"/><polygon class="cls-1" points="20.26 0 21.58 1.98 22.9 0 20.26 0"/><polygon class="cls-1" points="57.92 6.4 59.24 8.38 60.56 6.4 57.92 6.4"/><polygon class="cls-1" points="51.64 6.4 52.97 8.38 54.29 6.4 51.64 6.4"/><polygon class="cls-1" points="45.37 6.4 46.69 8.38 48.01 6.4 45.37 6.4"/><polygon class="cls-1" points="39.09 6.4 40.41 8.38 41.73 6.4 39.09 6.4"/><polygon class="cls-1" points="32.81 6.4 34.13 8.38 35.46 6.4 32.81 6.4"/><polygon class="cls-1" points="26.53 6.4 27.86 8.38 29.18 6.4 26.53 6.4"/><polygon class="cls-1" points="20.26 6.4 21.58 8.38 22.9 6.4 20.26 6.4"/><polygon class="cls-1" points="57.92 12.8 59.24 14.78 60.56 12.8 57.92 12.8"/><polygon class="cls-1" points="51.64 12.8 52.97 14.78 54.29 12.8 51.64 12.8"/><polygon class="cls-1" points="45.37 12.8 46.69 14.78 48.01 12.8 45.37 12.8"/><polygon class="cls-1" points="39.09 12.8 40.41 14.78 41.73 12.8 39.09 12.8"/><polygon class="cls-1" points="32.81 12.8 34.13 14.78 35.46 12.8 32.81 12.8"/><polygon class="cls-1" points="26.53 12.8 27.86 14.78 29.18 12.8 26.53 12.8"/><polygon class="cls-1" points="20.26 12.8 21.58 14.78 22.9 12.8 20.26 12.8"/><polygon class="cls-1" points="57.92 19.2 59.24 21.18 60.56 19.2 57.92 19.2"/><polygon class="cls-1" points="51.64 19.2 52.97 21.18 54.29 19.2 51.64 19.2"/><polygon class="cls-1" points="45.37 19.2 46.69 21.18 48.01 19.2 45.37 19.2"/><polygon class="cls-1" points="39.09 19.2 40.41 21.18 41.73 19.2 39.09 19.2"/><polygon class="cls-1" points="32.81 19.2 34.13 21.18 35.46 19.2 32.81 19.2"/><polygon class="cls-1" points="26.53 19.2 27.86 21.18 29.18 19.2 26.53 19.2"/><polygon class="cls-1" points="20.26 19.2 21.58 21.18 22.9 19.2 20.26 19.2"/><polygon class="cls-1" points="57.92 25.6 59.24 27.57 60.56 25.6 57.92 25.6"/><polygon class="cls-1" points="51.64 25.6 52.97 27.57 54.29 25.6 51.64 25.6"/><polygon class="cls-1" points="45.37 25.6 46.69 27.57 48.01 25.6 45.37 25.6"/><polygon class="cls-1" points="39.09 25.6 40.41 27.57 41.73 25.6 39.09 25.6"/><polygon class="cls-1" points="32.81 25.6 34.13 27.57 35.46 25.6 32.81 25.6"/><polygon class="cls-1" points="26.53 25.6 27.86 27.57 29.18 25.6 26.53 25.6"/><polygon class="cls-1" points="20.26 25.6 21.58 27.57 22.9 25.6 20.26 25.6"/><polygon class="cls-1" points="57.92 31.99 59.24 33.97 60.56 31.99 57.92 31.99"/><polygon class="cls-1" points="51.64 31.99 52.97 33.97 54.29 31.99 51.64 31.99"/><polygon class="cls-1" points="45.37 31.99 46.69 33.97 48.01 31.99 45.37 31.99"/><polygon class="cls-1" points="39.09 31.99 40.41 33.97 41.73 31.99 39.09 31.99"/><polygon class="cls-1" points="32.81 31.99 34.13 33.97 35.46 31.99 32.81 31.99"/><polygon class="cls-1" points="57.92 38.39 59.24 40.37 60.56 38.39 57.92 38.39"/><polygon class="cls-1" points="51.64 38.39 52.97 40.37 54.29 38.39 51.64 38.39"/><polygon class="cls-1" points="45.37 38.39 46.69 40.37 48.01 38.39 45.37 38.39"/><polygon class="cls-1" points="39.09 38.39 40.41 40.37 41.73 38.39 39.09 38.39"/><polygon class="cls-1" points="32.81 38.39 34.13 40.37 35.46 38.39 32.81 38.39"/></g></svg>