<?xml version="1.0" encoding="UTF-8"?><svg id="_レイヤー_2" xmlns="http://www.w3.org/2000/svg" viewBox="0 0 49.48 16.92"><defs><style>.cls-1{fill:#003559;}</style></defs><g id="icon"><polygon class="cls-1" points="32.88 11.64 24.74 6.78 16.6 11.64 8.47 6.78 .66 11.44 0 10.34 8.47 5.27 16.6 10.14 24.74 5.27 32.88 10.14 41.01 5.27 49.48 10.34 48.82 11.44 41.01 6.78 32.88 11.64"/><polygon class="cls-1" points="32.88 16.92 24.74 12.05 16.6 16.92 8.47 12.05 .66 16.72 0 15.61 8.47 10.55 16.6 15.41 24.74 10.55 32.88 15.41 41.01 10.55 49.48 15.61 48.82 16.72 41.01 12.05 32.88 16.92"/><polygon class="cls-1" points="32.88 6.37 24.74 1.5 16.6 6.37 8.47 1.5 .66 6.17 0 5.06 8.47 0 16.6 4.86 24.74 0 32.88 4.86 41.01 0 49.48 5.06 48.82 6.17 41.01 1.5 32.88 6.37"/></g></svg>