<?xml version="1.0" encoding="UTF-8"?><svg id="_レイヤー_2" xmlns="http://www.w3.org/2000/svg" viewBox="0 0 51.34 44.06"><defs><style>.cls-1{fill:#8fe2ff;}.cls-2{fill:#5f5d89;}</style></defs><g id="icon"><rect class="cls-1" x="16.56" y="19.71" width="30.35" height="9.17" transform="translate(-7.88 29.55) rotate(-45)"/><path class="cls-2" d="M50.97,11.86l-6.68-6.68c-.23-.23-.55-.37-.89-.37h0c-.33,0-.65.13-.89.37l-26.91,26.99c-.14.14-.24.31-.31.5l-3.15,9.76c-.15.45-.02.94.31,1.28.24.23.56.36.88.36.14,0,.27-.02.4-.07l9.64-3.28c.18-.06.34-.16.48-.3l27.11-26.79c.24-.23.37-.55.37-.89,0-.33-.13-.65-.37-.89ZM22.3,38.44l-7.01,2.38,2.29-7.1.17-.17,4.72,4.72-.17.17ZM24.26,36.51l-4.73-4.73,19.66-19.72,4.87,4.87-19.81,19.57ZM45.84,15.17l-4.89-4.89,2.45-2.45,4.9,4.9-2.46,2.43Z"/><path class="cls-2" d="M9.94,11.13c.13.06.26.09.4.09.32,0,.64-.18.79-.49L15.85,1.28c.22-.44.04-.97-.4-1.19-.44-.22-.97-.04-1.19.4l-4.72,9.45c-.22.44-.04.97.4,1.19Z"/><path class="cls-2" d="M19.15,10.96c.17.17.4.26.63.26s.45-.09.63-.26l4.72-4.72c.35-.35.35-.91,0-1.25L20.41.26c-.35-.35-.91-.35-1.25,0-.35.35-.35.91,0,1.25l4.1,4.1-4.1,4.1c-.35.35-.35.91,0,1.25Z"/><path class="cls-2" d="M4.98,10.96c.17.17.4.26.63.26s.45-.09.63-.26c.35-.35.35-.91,0-1.25L2.14,5.61,6.24,1.51c.35-.35.35-.91,0-1.25-.35-.35-.91-.35-1.25,0L.26,4.98c-.35.35-.35.91,0,1.25l4.72,4.72Z"/></g></svg>