<?xml version="1.0" encoding="UTF-8"?><svg id="_レイヤー_2" xmlns="http://www.w3.org/2000/svg" viewBox="0 0 99.68 48.48"><defs><style>.cls-1{fill:#003559;}</style></defs><g id="icon"><circle class="cls-1" cx="2.07" cy="28.58" r="2.07"/><circle class="cls-1" cx="10.97" cy="28.58" r="2.07"/><circle class="cls-1" cx="19.88" cy="28.58" r="2.07"/><circle class="cls-1" cx="28.78" cy="28.58" r="2.07"/><circle class="cls-1" cx="37.68" cy="28.58" r="2.07"/><circle class="cls-1" cx="46.59" cy="28.58" r="2.07"/><circle class="cls-1" cx="55.49" cy="28.58" r="2.07"/><circle class="cls-1" cx="64.4" cy="28.58" r="2.07"/><circle class="cls-1" cx="2.07" cy="37.5" r="2.07" transform="translate(-34.9 30.9) rotate(-76.72)"/><circle class="cls-1" cx="10.97" cy="37.5" r="2.07" transform="translate(-28.04 39.56) rotate(-76.72)"/><circle class="cls-1" cx="19.88" cy="37.5" r="2.07" transform="translate(-21.19 48.23) rotate(-76.72)"/><circle class="cls-1" cx="28.78" cy="37.5" r="2.07" transform="translate(-14.33 56.89) rotate(-76.72)"/><circle class="cls-1" cx="37.68" cy="37.5" r="2.07" transform="translate(-7.47 65.56) rotate(-76.72)"/><circle class="cls-1" cx="46.59" cy="37.5" r="2.07" transform="translate(-.61 74.23) rotate(-76.72)"/><circle class="cls-1" cx="55.49" cy="37.5" r="2.07" transform="translate(6.25 82.89) rotate(-76.72)"/><circle class="cls-1" cx="64.4" cy="37.5" r="2.07" transform="translate(13.11 91.56) rotate(-76.72)"/><circle class="cls-1" cx="2.07" cy="46.41" r="2.07"/><circle class="cls-1" cx="10.97" cy="46.41" r="2.07"/><circle class="cls-1" cx="19.88" cy="46.41" r="2.07"/><circle class="cls-1" cx="28.78" cy="46.41" r="2.07"/><circle class="cls-1" cx="37.68" cy="46.41" r="2.07"/><circle class="cls-1" cx="46.59" cy="46.41" r="2.07"/><circle class="cls-1" cx="55.49" cy="46.41" r="2.07"/><circle class="cls-1" cx="64.4" cy="46.41" r="2.07"/><rect class="cls-1" x="66.81" y="1.95" width="9.41" height="9.41" transform="translate(25.65 -48.62) rotate(45)"/><path class="cls-1" d="M89.08,20.36c-.59,0-1.08-.48-1.08-1.08v-5.56c0-.59.48-1.08,1.08-1.08s1.08.48,1.08,1.08v5.56c0,.59-.48,1.08-1.08,1.08Z"/><path class="cls-1" d="M89.08,33.85c-.59,0-1.08-.48-1.08-1.08v-5.56c0-.59.48-1.08,1.08-1.08s1.08.48,1.08,1.08v5.56c0,.59-.48,1.08-1.08,1.08Z"/><path class="cls-1" d="M98.6,24.33h-5.44c-.59,0-1.08-.48-1.08-1.08s.48-1.08,1.08-1.08h5.44c.59,0,1.08.48,1.08,1.08s-.48,1.08-1.08,1.08Z"/><path class="cls-1" d="M85.11,24.33h-5.56c-.59,0-1.08-.48-1.08-1.08s.48-1.08,1.08-1.08h5.56c.59,0,1.08.48,1.08,1.08s-.48,1.08-1.08,1.08Z"/></g></svg>