<?xml version="1.0" encoding="UTF-8"?><svg id="_レイヤー_2" xmlns="http://www.w3.org/2000/svg" viewBox="0 0 46.5 9.58"><defs><style>.cls-1{fill:#003559;}</style></defs><g id="background"><path class="cls-1" d="M33.41,9.42c.11.05.22.08.33.08.27,0,.54-.15.67-.42l4-8c.19-.37.04-.82-.34-1.01-.37-.18-.82-.04-1.01.34l-4,8c-.19.37-.04.82.34,1.01Z"/><path class="cls-1" d="M41.22,9.28c.15.15.34.22.53.22s.38-.07.53-.22l4-4c.29-.29.29-.77,0-1.06L42.28.22c-.29-.29-.77-.29-1.06,0-.29.29-.29.77,0,1.06l3.47,3.47-3.47,3.47c-.29.29-.29.77,0,1.06Z"/><path class="cls-1" d="M4.22,9.28c.15.15.34.22.53.22s.38-.07.53-.22c.29-.29.29-.77,0-1.06l-3.47-3.47,3.47-3.47c.29-.29.29-.77,0-1.06-.29-.29-.77-.29-1.06,0L.22,4.22c-.29.29-.29.77,0,1.06l4,4Z"/><path class="cls-1" d="M13.94,8.1h.05c.49,0,.73.34.73.66s-.25.65-.73.65h-.05c-.32-.01-.79-.02-1.27-.02-.56,0-1.14.01-1.44.02-.44.02-.77-.23-.77-.65,0-.34.24-.66.71-.66h.06c.13.01.37.01.55.01.23,0,.28-.07.28-.29.01-1.34.04-3.24.04-4.43,0-.5,0-.88-.01-1.03-.01-.37-.13-.56-.53-.58h-.29c-.54.04-.73-.38-.73-.71,0-.35.2-.68.62-.68h.05c.14,0,.3.01.47.01.16,0,.31-.01.42-.01h.11c.79,0,1.27.52,1.27,1.25v.02c0,.22-.02.56-.02,1.01-.01,1-.05,2.46-.05,3.99,0,.37.01.76.01,1.13,0,.18.06.3.25.3h.28Z"/><path class="cls-1" d="M21.14,8.1h.05c.49,0,.73.34.73.66s-.25.65-.73.65h-.05c-.32-.01-.79-.02-1.27-.02-.56,0-1.14.01-1.44.02-.44.02-.77-.23-.77-.65,0-.34.24-.66.71-.66h.06c.13.01.37.01.55.01.23,0,.28-.07.28-.29.01-1.34.04-3.24.04-4.43,0-.5,0-.88-.01-1.03-.01-.37-.13-.56-.53-.58h-.29c-.54.04-.73-.38-.73-.71,0-.35.2-.68.62-.68h.05c.14,0,.3.01.47.01.16,0,.31-.01.42-.01h.11c.79,0,1.27.52,1.27,1.25v.02c0,.22-.02.56-.02,1.01-.01,1-.05,2.46-.05,3.99,0,.37.01.76.01,1.13,0,.18.06.3.25.3h.28Z"/><path class="cls-1" d="M24.03,6.48c-.05-.52-.07-1.02-.07-1.52,0-.47.02-.94.06-1.43.17-2.09,1.31-3.24,2.94-3.24s2.73,1.09,2.93,3.09c.05.53.08,1.06.08,1.57,0,1.16-.04,4.63-3.01,4.63-1.6,0-2.73-1.09-2.93-3.11ZM28.52,6.53c.07-.53.11-1.12.11-1.7,0-.44-.02-.89-.06-1.3-.12-1.26-.74-2.01-1.61-2.01s-1.5.77-1.62,2.06c-.04.41-.06.83-.06,1.24,0,.53.04,1.07.1,1.58.14,1.22.79,1.95,1.58,1.95s1.39-.68,1.56-1.82Z"/></g></svg>